<svg enable-background="new 0 0 100 100" viewBox="0 0 100 100" xmlns="http://www.w3.org/2000/svg"><path d="m83.3 75.5v.1s0 4.6-2.9 6.3c-.3.2-3.3 2.1-3.6 5.2l-.2 3.7c0 1 .8 1.9 1.8 2h.1c1 0 1.8-.8 1.9-1.8l.1-3.6c.1-.9 1.2-1.9 1.8-2.2 4.4-2.5 4.6-8.6 4.6-9.5l1.1-19.4v-.1-3.6c0-3.7-3-6.7-6.7-6.7-1.2 0-2.3.3-3.3.9-.9-2.6-3.4-4.6-6.4-4.6-1.6 0-3.1.5-4.3 1.5-1.2-1.6-3.2-2.7-5.4-2.7-1.1 0-2.1.2-3 .7v-8.9c3.6-2.3 5.9-6.4 5.9-10.7 0-7-5.7-12.7-12.7-12.7s-12.3 5.5-12.3 12.6c0 4.4 2.3 8.4 5.9 10.8l-.7 27.5v.1l-5.9-11.4c0-.1-.1-.1-.1-.2-1.1-1.5-4.1-4.1-8.2-2.2-3.5 1.5-3.3 5.3-2.7 6.9.7 2.1 6.6 20.3 8.1 23.1.2.3.4.8.5 1.1 1.5 3 3.7 7.1 10.4 9.1 2 .5 2 1.5 2 1.6v.3 2.5c0 1 .9 1.9 1.9 1.9s1.9-.9 1.9-1.9v-2.3c.2-1.5-.5-4.5-4.6-5.7-5.2-1.5-6.8-4.6-8.2-7.3-.2-.4-.4-.8-.7-1.2-1-1.9-5.4-14.7-7.8-22.4-.1-.3-.5-1.9.7-2.4 2-.9 3.2.3 3.5.8l6 11.4s0 .1.1.1c.2.3 1.1 1.6 2.5 2-.2.5-.5.9-.9 1-1 .3-1.4 1.4-1.1 2.4.3.8 1 1.2 1.8 1.2.2 0 .4 0 .7-.1 4-1.4 4-7 4-8.9l.9-36.5c0-1.6 1.3-3 3-3 1.6 0 3 1.3 3 3v24.2 1.6c0 1 .9 1.9 1.9 1.9s1.9-.9 1.9-1.9v-1.6c0-1.6 1.3-3 3-3 1.6 0 3 1.3 3 3v1.2.4 1.2c0 1 .9 1.9 1.9 1.9s1.9-.9 1.9-1.9v-1.2-.4c0-1.6 1.3-3 3-3s3 1.3 3 3v3.7.7 1.1c0 1 .9 1.9 1.9 1.9s1.9-.9 1.9-1.9v-1.1-.7c0-1.6 1.3-3 3-3 1.6 0 3 1.3 3 3v3.6zm-30.7-58.8c-3.7 0-6.7 3-6.7 6.6l-.1 4.7c-1.5-1.6-2.4-3.8-2.4-6 0-4.9 4.1-9 9-9s9 4.1 9 9c0 2.2-.8 4.3-2.2 5.8v-4.5c0-3.6-2.9-6.6-6.6-6.6z"/><path d="m36.8 21.7c0-1-.9-1.9-1.9-1.9h-15.3l2.7-3c.7-.8.7-2-.1-2.6-.3-.3-.8-.4-1.2-.4-.5 0-1 .2-1.3.5l-5.8 6.3c-.3.3-.5.9-.4 1.3 0 .4.2 1 .5 1.3l6.2 5.8c.8.7 2 .7 2.6-.1.7-.8.7-2-.1-2.6l-3.1-2.9h15.4c1 .1 1.8-.7 1.8-1.7z"/></svg>