<svg height="42" width="37" xmlns="http://www.w3.org/2000/svg"><path d="m34.896 31.224c-1.962 4.975-6.343 9.083-11.638 10.769 2.864-2.062 4.741-5.486 4.741-9.364 0-3.062-1.171-5.84-3.073-7.89 3.531-1.047 6.119-4.405 6.119-8.387 0-.648-.073-1.278-.202-1.886 4.24 4.696 6.764 9.876 4.053 16.758zm-12.309-9.804c-2.713 0-4.912-2.269-4.912-5.068s2.199-5.069 4.912-5.069c2.712 0 4.911 2.27 4.911 5.069s-2.199 5.068-4.911 5.068zm-8.459-5.068c0 1.838.553 3.543 1.494 4.951-5.484.673-9.738 5.485-9.738 11.326 0 2.8.977 5.362 2.599 7.349-7.629-4.78-10.239-13.926-7.343-21.325 4.315-11.026 15.989-6.678 14.876-18.645 2.179 2.734 4.94 5.233 7.707 7.697-.371-.052-.751-.081-1.136-.081-4.672 0-8.459 3.908-8.459 8.728zm2.814 9.651c3.545 0 6.42 2.967 6.42 6.626s-2.875 6.627-6.42 6.627c-3.547 0-6.422-2.968-6.422-6.627s2.875-6.626 6.422-6.626z" fill="#ccc" fill-rule="evenodd"/></svg>