<svg viewBox="0 0 266.1 62.7" xmlns="http://www.w3.org/2000/svg"><g fill-rule="evenodd"><path d="m181.05 21.1a2.87 2.87 0 0 0 -2 .8 3.31 3.31 0 0 0 -.85 2.1h-5.55a8.42 8.42 0 0 1 1-4.1 6.69 6.69 0 0 1 2.8-2.8 9.3 9.3 0 0 1 4.5-1 9.86 9.86 0 0 1 4.65 1 6.87 6.87 0 0 1 2.9 2.6 6.54 6.54 0 0 1 1 3.55 5.78 5.78 0 0 1 -.5 2.3 12.69 12.69 0 0 1 -1.55 2.55c-.7.93-1.62 2.07-2.75 3.4l-3.15 3.8h8.15v4.7h-16.6v-2.8l7.1-8.65q1-1.2 1.8-2.1a11.59 11.59 0 0 0 1.15-1.6 2.86 2.86 0 0 0 .4-1.45 2.33 2.33 0 0 0 -.6-1.55 2.46 2.46 0 0 0 -1.9-.75zm-114.55 8.9-13.7-6v-9l24 10.5zm13.5-3.25v9.1l-27.2 11.85v-9.05zm-52.8-11.85v9l-13.7 6.1-10.35-4.6zm0 32.8-27.2-11.85v-9.1l27.2 11.9z" fill="#28a9e0"/><path d="m141.3 20a8.13 8.13 0 0 1 1.3 3.85h-5.85a3.37 3.37 0 0 0 -1.1-2.1 3.89 3.89 0 0 0 -2.7-.85 4.27 4.27 0 0 0 -2.4.6 2 2 0 0 0 -.9 1.75 1.73 1.73 0 0 0 .65 1.45 5.23 5.23 0 0 0 2 .75l3.3.75a14.71 14.71 0 0 1 3.7 1.25 6 6 0 0 1 2.45 2.1 6.43 6.43 0 0 1 .9 3.35 7.07 7.07 0 0 1 -1.25 4 7.59 7.59 0 0 1 -3.35 2.6 14 14 0 0 1 -5.1 1 13.83 13.83 0 0 1 -4.95-.9 9.25 9.25 0 0 1 -3.8-2.7 8.8 8.8 0 0 1 -1.8-4.75h5.8a3.65 3.65 0 0 0 1.55 2.45 6.25 6.25 0 0 0 3.35.9 5 5 0 0 0 2.45-.55 1.74 1.74 0 0 0 .85-1.55 1.45 1.45 0 0 0 -.5-1.15 3.62 3.62 0 0 0 -2-.85l-3.85-.85a10.45 10.45 0 0 1 -5.15-2.4 6.18 6.18 0 0 1 -1.65-4.5 6.83 6.83 0 0 1 1.2-4 7.6 7.6 0 0 1 3.3-2.65 12 12 0 0 1 4.85-.9 12.61 12.61 0 0 1 3.05.3 10.79 10.79 0 0 1 3.15 1.2 7.25 7.25 0 0 1 2.5 2.4zm6.4-3.4h9.45a14.29 14.29 0 0 1 6.5 1.5 10.82 10.82 0 0 1 4.45 4.1 11 11 0 0 1 1.65 6.05 11.3 11.3 0 0 1 -6.1 10.25 14.29 14.29 0 0 1 -6.5 1.5h-9.45zm9.45 5.25h-3.6v13h3.6a7.08 7.08 0 0 0 3.4-.9 6.18 6.18 0 0 0 2.4-2.3 6.39 6.39 0 0 0 .9-3.35 6.14 6.14 0 0 0 -.9-3.3 5.79 5.79 0 0 0 -2.4-2.25 6.73 6.73 0 0 0 -3.4-.95zm-39.05-1.3a8.51 8.51 0 0 1 1.2 4.55 8.49 8.49 0 0 1 -1.3 4.75 8 8 0 0 1 -3.55 3 12.8 12.8 0 0 1 -5.55 1.15h-3.1v6h-5.8v-23.45h9.45a12.11 12.11 0 0 1 5.25 1.05 7.89 7.89 0 0 1 3.4 2.95zm-8.85 1.15h-3.45v7.2h3.45a4.55 4.55 0 0 0 3.1-1 3.75 3.75 0 0 0 1.15-2.8 3.18 3.18 0 0 0 -1.15-2.5 4.9 4.9 0 0 0 -3.1-.9zm86.5.25a11.36 11.36 0 0 1 4.4-4.3 13.29 13.29 0 0 1 6.35-1.6 13.06 13.06 0 0 1 5.7 1.3 11.44 11.44 0 0 1 4.1 3.55 11.83 11.83 0 0 1 1.9 5.35h-5.95a6.15 6.15 0 0 0 -1.95-3.45 5.64 5.64 0 0 0 -3.85-1.3 6.41 6.41 0 0 0 -5.65 3.25 8.06 8.06 0 0 0 0 7 6.41 6.41 0 0 0 5.65 3.25 5.64 5.64 0 0 0 3.85-1.3 6.15 6.15 0 0 0 1.95-3.45h5.95a11.83 11.83 0 0 1 -1.9 5.35 11.44 11.44 0 0 1 -4.1 3.55 13.06 13.06 0 0 1 -5.7 1.3 13.29 13.29 0 0 1 -6.35-1.6 11.36 11.36 0 0 1 -4.4-4.3 12.85 12.85 0 0 1 0-12.6zm51 1.7a6.83 6.83 0 0 1 1.2-4 7.6 7.6 0 0 1 3.25-2.65 12 12 0 0 1 4.85-.9 12.61 12.61 0 0 1 3.05.3 10.79 10.79 0 0 1 3.15 1.2 7.25 7.25 0 0 1 2.5 2.4 8.13 8.13 0 0 1 1.3 3.85h-5.85a3.37 3.37 0 0 0 -1.1-2.1 3.89 3.89 0 0 0 -2.7-.85 4.27 4.27 0 0 0 -2.4.6 2 2 0 0 0 -.9 1.75 1.73 1.73 0 0 0 .65 1.45 5.23 5.23 0 0 0 2 .75l3.3.75a14.71 14.71 0 0 1 3.7 1.25 6 6 0 0 1 2.45 2.1 6.43 6.43 0 0 1 .9 3.35 7.07 7.07 0 0 1 -1.25 4 7.59 7.59 0 0 1 -3.35 2.6 14 14 0 0 1 -5.1 1 13.83 13.83 0 0 1 -4.95-.85 9.25 9.25 0 0 1 -3.8-2.7 8.8 8.8 0 0 1 -1.8-4.75h5.8a3.65 3.65 0 0 0 1.55 2.45 6.25 6.25 0 0 0 3.35.9 5 5 0 0 0 2.45-.55 1.74 1.74 0 0 0 .85-1.55 1.45 1.45 0 0 0 -.5-1.15 3.62 3.62 0 0 0 -2-.85l-3.85-.85a10.45 10.45 0 0 1 -5.15-2.4 6.18 6.18 0 0 1 -1.6-4.55zm-23.8 0a6.83 6.83 0 0 1 1.2-4 7.6 7.6 0 0 1 3.25-2.65 12 12 0 0 1 4.85-.9 12.61 12.61 0 0 1 3.05.3 10.79 10.79 0 0 1 3.15 1.2 7.25 7.25 0 0 1 2.55 2.4 8.13 8.13 0 0 1 1.3 3.85h-5.9a3.37 3.37 0 0 0 -1.1-2.1 3.89 3.89 0 0 0 -2.7-.85 4.27 4.27 0 0 0 -2.4.6 2 2 0 0 0 -.9 1.75 1.73 1.73 0 0 0 .65 1.45 5.23 5.23 0 0 0 2 .75l3.3.75a14.71 14.71 0 0 1 3.75 1.2 6 6 0 0 1 2.45 2.1 6.43 6.43 0 0 1 .9 3.35 7.07 7.07 0 0 1 -1.25 4 7.59 7.59 0 0 1 -3.35 2.6 14 14 0 0 1 -5.1 1 13.83 13.83 0 0 1 -4.95-.85 9.25 9.25 0 0 1 -3.8-2.7 8.8 8.8 0 0 1 -1.8-4.75h5.8a3.65 3.65 0 0 0 1.55 2.45 6.25 6.25 0 0 0 3.35.9 5 5 0 0 0 2.4-.5 1.74 1.74 0 0 0 .85-1.55 1.45 1.45 0 0 0 -.5-1.15 3.62 3.62 0 0 0 -2-.85l-3.85-.85a10.45 10.45 0 0 1 -5.15-2.4 6.18 6.18 0 0 1 -1.55-4.55z" fill="#2d3236"/><path d="m39.6 0 17.85 7.75-17.85 7.8-17.85-7.8zm0 47.15 17.85 7.75-17.85 7.8-17.85-7.8zm-17.85-15.8 17.85-7.75 17.85 7.75-17.85 7.8z" fill="#215398"/></g></svg>