<svg height="42" width="42" xmlns="http://www.w3.org/2000/svg"><path d="m20.998 42.011c-11.582 0-21.005-9.423-21.005-21.006 0-11.582 9.423-21.005 21.005-21.005s21.007 9.423 21.007 21.005c0 11.583-9.425 21.006-21.007 21.006zm0-41.048c-11.051 0-20.042 8.991-20.042 20.042s8.991 20.043 20.042 20.043 20.041-8.992 20.041-20.043-8.99-20.042-20.041-20.042zm18.019 20.042c0 6.647-3.603 12.452-8.96 15.576l5.504-15.914c1.029-2.57 1.37-4.626 1.37-6.455 0-.663-.044-1.278-.121-1.852 1.407 2.566 2.207 5.512 2.207 8.645zm-9.11-10.105c0 1.485.857 2.742 1.77 4.226.686 1.2 1.486 2.742 1.486 4.969 0 1.543-.593 3.333-1.372 5.826l-1.798 6.006-6.511-19.371c1.084-.057 2.062-.171 2.062-.171.971-.115.856-1.542-.116-1.485 0 0-2.917.229-4.802.229-1.771 0-4.746-.229-4.746-.229-.971-.057-1.085 1.428-.114 1.485 0 0 .92.114 1.89.171l2.807 7.692-3.943 11.827-6.562-19.519c1.086-.057 2.062-.171 2.062-.171.971-.115.856-1.542-.115-1.485 0 0-2.918.229-4.803.229-.338 0-.736-.009-1.16-.022 3.223-4.891 8.761-8.121 15.056-8.121 4.692 0 8.963 1.793 12.168 4.731-.077-.005-.153-.015-.233-.015-1.77 0-3.026 1.542-3.026 3.198zm-26.928 10.105c0-2.612.56-5.093 1.56-7.333l8.596 23.55c-6.011-2.921-10.156-9.085-10.156-16.217zm23.875 16.751c.036.089.08.171.128.248-1.873.658-3.886 1.021-5.984 1.021-1.769 0-3.476-.259-5.09-.733l5.407-15.711z" fill="#b3b3b3" fill-rule="evenodd"/></svg>